<?xml version="1.0" encoding="utf-8"?>
<svg xmlns="http://www.w3.org/2000/svg" xmlns:xlink="http://www.w3.org/1999/xlink" width="600" height="400" viewBox="0 0 2400 1600">
<defs>
  <clipPath id="clip540">
    <rect x="0" y="0" width="2400" height="1600"/>
  </clipPath>
</defs>
<path clip-path="url(#clip540)" d="M0 1600 L2400 1600 L2400 0 L0 0  Z" fill="#ffffff" fill-rule="evenodd" fill-opacity="1"/>
<defs>
  <clipPath id="clip541">
    <rect x="480" y="0" width="1681" height="1600"/>
  </clipPath>
</defs>
<path clip-path="url(#clip540)" d="M257.204 1423.18 L2352.76 1423.18 L2352.76 123.472 L257.204 123.472  Z" fill="#ffffff" fill-rule="evenodd" fill-opacity="1"/>
<defs>
  <clipPath id="clip542">
    <rect x="257" y="123" width="2097" height="1301"/>
  </clipPath>
</defs>
<polyline clip-path="url(#clip542)" style="stroke:#000000; stroke-linecap:round; stroke-linejoin:round; stroke-width:2; stroke-opacity:0.1; fill:none" points="316.512,1423.18 316.512,123.472 "/>
<polyline clip-path="url(#clip542)" style="stroke:#000000; stroke-linecap:round; stroke-linejoin:round; stroke-width:2; stroke-opacity:0.1; fill:none" points="635.373,1423.18 635.373,123.472 "/>
<polyline clip-path="url(#clip542)" style="stroke:#000000; stroke-linecap:round; stroke-linejoin:round; stroke-width:2; stroke-opacity:0.1; fill:none" points="954.233,1423.18 954.233,123.472 "/>
<polyline clip-path="url(#clip542)" style="stroke:#000000; stroke-linecap:round; stroke-linejoin:round; stroke-width:2; stroke-opacity:0.1; fill:none" points="1273.09,1423.18 1273.09,123.472 "/>
<polyline clip-path="url(#clip542)" style="stroke:#000000; stroke-linecap:round; stroke-linejoin:round; stroke-width:2; stroke-opacity:0.1; fill:none" points="1591.95,1423.18 1591.95,123.472 "/>
<polyline clip-path="url(#clip542)" style="stroke:#000000; stroke-linecap:round; stroke-linejoin:round; stroke-width:2; stroke-opacity:0.1; fill:none" points="1910.82,1423.18 1910.82,123.472 "/>
<polyline clip-path="url(#clip542)" style="stroke:#000000; stroke-linecap:round; stroke-linejoin:round; stroke-width:2; stroke-opacity:0.1; fill:none" points="2229.68,1423.18 2229.68,123.472 "/>
<polyline clip-path="url(#clip540)" style="stroke:#000000; stroke-linecap:round; stroke-linejoin:round; stroke-width:4; stroke-opacity:1; fill:none" points="257.204,1423.18 2352.76,1423.18 "/>
<polyline clip-path="url(#clip540)" style="stroke:#000000; stroke-linecap:round; stroke-linejoin:round; stroke-width:4; stroke-opacity:1; fill:none" points="316.512,1423.18 316.512,1404.28 "/>
<polyline clip-path="url(#clip540)" style="stroke:#000000; stroke-linecap:round; stroke-linejoin:round; stroke-width:4; stroke-opacity:1; fill:none" points="635.373,1423.18 635.373,1404.28 "/>
<polyline clip-path="url(#clip540)" style="stroke:#000000; stroke-linecap:round; stroke-linejoin:round; stroke-width:4; stroke-opacity:1; fill:none" points="954.233,1423.18 954.233,1404.28 "/>
<polyline clip-path="url(#clip540)" style="stroke:#000000; stroke-linecap:round; stroke-linejoin:round; stroke-width:4; stroke-opacity:1; fill:none" points="1273.09,1423.18 1273.09,1404.28 "/>
<polyline clip-path="url(#clip540)" style="stroke:#000000; stroke-linecap:round; stroke-linejoin:round; stroke-width:4; stroke-opacity:1; fill:none" points="1591.95,1423.18 1591.95,1404.28 "/>
<polyline clip-path="url(#clip540)" style="stroke:#000000; stroke-linecap:round; stroke-linejoin:round; stroke-width:4; stroke-opacity:1; fill:none" points="1910.82,1423.18 1910.82,1404.28 "/>
<polyline clip-path="url(#clip540)" style="stroke:#000000; stroke-linecap:round; stroke-linejoin:round; stroke-width:4; stroke-opacity:1; fill:none" points="2229.68,1423.18 2229.68,1404.28 "/>
<path clip-path="url(#clip540)" d="M316.512 1454.1 Q312.901 1454.1 311.072 1457.66 Q309.267 1461.2 309.267 1468.33 Q309.267 1475.44 311.072 1479.01 Q312.901 1482.55 316.512 1482.55 Q320.146 1482.55 321.952 1479.01 Q323.781 1475.44 323.781 1468.33 Q323.781 1461.2 321.952 1457.66 Q320.146 1454.1 316.512 1454.1 M316.512 1450.39 Q322.322 1450.39 325.378 1455 Q328.456 1459.58 328.456 1468.33 Q328.456 1477.06 325.378 1481.67 Q322.322 1486.25 316.512 1486.25 Q310.702 1486.25 307.623 1481.67 Q304.568 1477.06 304.568 1468.33 Q304.568 1459.58 307.623 1455 Q310.702 1450.39 316.512 1450.39 Z" fill="#000000" fill-rule="nonzero" fill-opacity="1" /><path clip-path="url(#clip540)" d="M625.755 1481.64 L633.394 1481.64 L633.394 1455.28 L625.083 1456.95 L625.083 1452.69 L633.347 1451.02 L638.023 1451.02 L638.023 1481.64 L645.662 1481.64 L645.662 1485.58 L625.755 1485.58 L625.755 1481.64 Z" fill="#000000" fill-rule="nonzero" fill-opacity="1" /><path clip-path="url(#clip540)" d="M948.886 1481.64 L965.205 1481.64 L965.205 1485.58 L943.261 1485.58 L943.261 1481.64 Q945.923 1478.89 950.506 1474.26 Q955.113 1469.61 956.293 1468.27 Q958.539 1465.74 959.418 1464.01 Q960.321 1462.25 960.321 1460.56 Q960.321 1457.8 958.377 1456.07 Q956.456 1454.33 953.354 1454.33 Q951.155 1454.33 948.701 1455.09 Q946.27 1455.86 943.493 1457.41 L943.493 1452.69 Q946.317 1451.55 948.77 1450.97 Q951.224 1450.39 953.261 1450.39 Q958.631 1450.39 961.826 1453.08 Q965.02 1455.77 965.02 1460.26 Q965.02 1462.39 964.21 1464.31 Q963.423 1466.2 961.317 1468.8 Q960.738 1469.47 957.636 1472.69 Q954.534 1475.88 948.886 1481.64 Z" fill="#000000" fill-rule="nonzero" fill-opacity="1" /><path clip-path="url(#clip540)" d="M1277.34 1466.95 Q1280.7 1467.66 1282.57 1469.93 Q1284.47 1472.2 1284.47 1475.53 Q1284.47 1480.65 1280.95 1483.45 Q1277.43 1486.25 1270.95 1486.25 Q1268.78 1486.25 1266.46 1485.81 Q1264.17 1485.39 1261.72 1484.54 L1261.72 1480.02 Q1263.66 1481.16 1265.98 1481.74 Q1268.29 1482.32 1270.81 1482.32 Q1275.21 1482.32 1277.5 1480.58 Q1279.82 1478.84 1279.82 1475.53 Q1279.82 1472.48 1277.67 1470.77 Q1275.54 1469.03 1271.72 1469.03 L1267.69 1469.03 L1267.69 1465.19 L1271.9 1465.19 Q1275.35 1465.19 1277.18 1463.82 Q1279.01 1462.43 1279.01 1459.84 Q1279.01 1457.18 1277.11 1455.77 Q1275.24 1454.33 1271.72 1454.33 Q1269.8 1454.33 1267.6 1454.75 Q1265.4 1455.16 1262.76 1456.04 L1262.76 1451.88 Q1265.42 1451.14 1267.74 1450.77 Q1270.07 1450.39 1272.13 1450.39 Q1277.46 1450.39 1280.56 1452.83 Q1283.66 1455.23 1283.66 1459.35 Q1283.66 1462.22 1282.02 1464.21 Q1280.37 1466.18 1277.34 1466.95 Z" fill="#000000" fill-rule="nonzero" fill-opacity="1" /><path clip-path="url(#clip540)" d="M1594.96 1455.09 L1583.16 1473.54 L1594.96 1473.54 L1594.96 1455.09 M1593.74 1451.02 L1599.62 1451.02 L1599.62 1473.54 L1604.55 1473.54 L1604.55 1477.43 L1599.62 1477.43 L1599.62 1485.58 L1594.96 1485.58 L1594.96 1477.43 L1579.36 1477.43 L1579.36 1472.92 L1593.74 1451.02 Z" fill="#000000" fill-rule="nonzero" fill-opacity="1" /><path clip-path="url(#clip540)" d="M1901.09 1451.02 L1919.45 1451.02 L1919.45 1454.96 L1905.38 1454.96 L1905.38 1463.43 Q1906.39 1463.08 1907.41 1462.92 Q1908.43 1462.73 1909.45 1462.73 Q1915.24 1462.73 1918.62 1465.9 Q1922 1469.08 1922 1474.49 Q1922 1480.07 1918.52 1483.17 Q1915.05 1486.25 1908.73 1486.25 Q1906.56 1486.25 1904.29 1485.88 Q1902.04 1485.51 1899.63 1484.77 L1899.63 1480.07 Q1901.72 1481.2 1903.94 1481.76 Q1906.16 1482.32 1908.64 1482.32 Q1912.64 1482.32 1914.98 1480.21 Q1917.32 1478.1 1917.32 1474.49 Q1917.32 1470.88 1914.98 1468.77 Q1912.64 1466.67 1908.64 1466.67 Q1906.76 1466.67 1904.89 1467.08 Q1903.04 1467.5 1901.09 1468.38 L1901.09 1451.02 Z" fill="#000000" fill-rule="nonzero" fill-opacity="1" /><path clip-path="url(#clip540)" d="M2230.08 1466.44 Q2226.93 1466.44 2225.08 1468.59 Q2223.25 1470.74 2223.25 1474.49 Q2223.25 1478.22 2225.08 1480.39 Q2226.93 1482.55 2230.08 1482.55 Q2233.23 1482.55 2235.06 1480.39 Q2236.91 1478.22 2236.91 1474.49 Q2236.91 1470.74 2235.06 1468.59 Q2233.23 1466.44 2230.08 1466.44 M2239.36 1451.78 L2239.36 1456.04 Q2237.6 1455.21 2235.8 1454.77 Q2234.02 1454.33 2232.26 1454.33 Q2227.63 1454.33 2225.17 1457.45 Q2222.74 1460.58 2222.4 1466.9 Q2223.76 1464.89 2225.82 1463.82 Q2227.88 1462.73 2230.36 1462.73 Q2235.57 1462.73 2238.58 1465.9 Q2241.61 1469.05 2241.61 1474.49 Q2241.61 1479.82 2238.46 1483.03 Q2235.31 1486.25 2230.08 1486.25 Q2224.09 1486.25 2220.91 1481.67 Q2217.74 1477.06 2217.74 1468.33 Q2217.74 1460.14 2221.63 1455.28 Q2225.52 1450.39 2232.07 1450.39 Q2233.83 1450.39 2235.61 1450.74 Q2237.42 1451.09 2239.36 1451.78 Z" fill="#000000" fill-rule="nonzero" fill-opacity="1" /><path clip-path="url(#clip540)" d="M1321.59 1532.4 L1308.7 1549.74 L1322.26 1568.04 L1315.36 1568.04 L1304.98 1554.04 L1294.6 1568.04 L1287.7 1568.04 L1301.54 1549.39 L1288.87 1532.4 L1295.78 1532.4 L1305.23 1545.1 L1314.69 1532.4 L1321.59 1532.4 Z" fill="#000000" fill-rule="nonzero" fill-opacity="1" /><polyline clip-path="url(#clip542)" style="stroke:#000000; stroke-linecap:round; stroke-linejoin:round; stroke-width:2; stroke-opacity:0.1; fill:none" points="257.204,1386.44 2352.76,1386.44 "/>
<polyline clip-path="url(#clip542)" style="stroke:#000000; stroke-linecap:round; stroke-linejoin:round; stroke-width:2; stroke-opacity:0.1; fill:none" points="257.204,1079.83 2352.76,1079.83 "/>
<polyline clip-path="url(#clip542)" style="stroke:#000000; stroke-linecap:round; stroke-linejoin:round; stroke-width:2; stroke-opacity:0.1; fill:none" points="257.204,773.219 2352.76,773.219 "/>
<polyline clip-path="url(#clip542)" style="stroke:#000000; stroke-linecap:round; stroke-linejoin:round; stroke-width:2; stroke-opacity:0.1; fill:none" points="257.204,466.607 2352.76,466.607 "/>
<polyline clip-path="url(#clip542)" style="stroke:#000000; stroke-linecap:round; stroke-linejoin:round; stroke-width:2; stroke-opacity:0.1; fill:none" points="257.204,159.995 2352.76,159.995 "/>
<polyline clip-path="url(#clip540)" style="stroke:#000000; stroke-linecap:round; stroke-linejoin:round; stroke-width:4; stroke-opacity:1; fill:none" points="257.204,1423.18 257.204,123.472 "/>
<polyline clip-path="url(#clip540)" style="stroke:#000000; stroke-linecap:round; stroke-linejoin:round; stroke-width:4; stroke-opacity:1; fill:none" points="257.204,1386.44 276.102,1386.44 "/>
<polyline clip-path="url(#clip540)" style="stroke:#000000; stroke-linecap:round; stroke-linejoin:round; stroke-width:4; stroke-opacity:1; fill:none" points="257.204,1079.83 276.102,1079.83 "/>
<polyline clip-path="url(#clip540)" style="stroke:#000000; stroke-linecap:round; stroke-linejoin:round; stroke-width:4; stroke-opacity:1; fill:none" points="257.204,773.219 276.102,773.219 "/>
<polyline clip-path="url(#clip540)" style="stroke:#000000; stroke-linecap:round; stroke-linejoin:round; stroke-width:4; stroke-opacity:1; fill:none" points="257.204,466.607 276.102,466.607 "/>
<polyline clip-path="url(#clip540)" style="stroke:#000000; stroke-linecap:round; stroke-linejoin:round; stroke-width:4; stroke-opacity:1; fill:none" points="257.204,159.995 276.102,159.995 "/>
<path clip-path="url(#clip540)" d="M114.26 1386.89 L143.936 1386.89 L143.936 1390.83 L114.26 1390.83 L114.26 1386.89 Z" fill="#000000" fill-rule="nonzero" fill-opacity="1" /><path clip-path="url(#clip540)" d="M154.839 1399.79 L162.477 1399.79 L162.477 1373.42 L154.167 1375.09 L154.167 1370.83 L162.431 1369.16 L167.107 1369.16 L167.107 1399.79 L174.746 1399.79 L174.746 1403.72 L154.839 1403.72 L154.839 1399.79 Z" fill="#000000" fill-rule="nonzero" fill-opacity="1" /><path clip-path="url(#clip540)" d="M184.19 1397.84 L189.075 1397.84 L189.075 1403.72 L184.19 1403.72 L184.19 1397.84 Z" fill="#000000" fill-rule="nonzero" fill-opacity="1" /><path clip-path="url(#clip540)" d="M209.26 1372.24 Q205.649 1372.24 203.82 1375.81 Q202.014 1379.35 202.014 1386.48 Q202.014 1393.58 203.82 1397.15 Q205.649 1400.69 209.26 1400.69 Q212.894 1400.69 214.699 1397.15 Q216.528 1393.58 216.528 1386.48 Q216.528 1379.35 214.699 1375.81 Q212.894 1372.24 209.26 1372.24 M209.26 1368.54 Q215.07 1368.54 218.125 1373.14 Q221.204 1377.73 221.204 1386.48 Q221.204 1395.2 218.125 1399.81 Q215.07 1404.39 209.26 1404.39 Q203.449 1404.39 200.371 1399.81 Q197.315 1395.2 197.315 1386.48 Q197.315 1377.73 200.371 1373.14 Q203.449 1368.54 209.26 1368.54 Z" fill="#000000" fill-rule="nonzero" fill-opacity="1" /><path clip-path="url(#clip540)" d="M115.256 1080.28 L144.931 1080.28 L144.931 1084.22 L115.256 1084.22 L115.256 1080.28 Z" fill="#000000" fill-rule="nonzero" fill-opacity="1" /><path clip-path="url(#clip540)" d="M165.024 1065.63 Q161.413 1065.63 159.584 1069.19 Q157.778 1072.74 157.778 1079.87 Q157.778 1086.97 159.584 1090.54 Q161.413 1094.08 165.024 1094.08 Q168.658 1094.08 170.464 1090.54 Q172.292 1086.97 172.292 1079.87 Q172.292 1072.74 170.464 1069.19 Q168.658 1065.63 165.024 1065.63 M165.024 1061.93 Q170.834 1061.93 173.889 1066.53 Q176.968 1071.12 176.968 1079.87 Q176.968 1088.59 173.889 1093.2 Q170.834 1097.78 165.024 1097.78 Q159.214 1097.78 156.135 1093.2 Q153.079 1088.59 153.079 1079.87 Q153.079 1071.12 156.135 1066.53 Q159.214 1061.93 165.024 1061.93 Z" fill="#000000" fill-rule="nonzero" fill-opacity="1" /><path clip-path="url(#clip540)" d="M185.186 1091.23 L190.07 1091.23 L190.07 1097.11 L185.186 1097.11 L185.186 1091.23 Z" fill="#000000" fill-rule="nonzero" fill-opacity="1" /><path clip-path="url(#clip540)" d="M200.301 1062.55 L218.658 1062.55 L218.658 1066.49 L204.584 1066.49 L204.584 1074.96 Q205.602 1074.61 206.621 1074.45 Q207.639 1074.26 208.658 1074.26 Q214.445 1074.26 217.824 1077.43 Q221.204 1080.61 221.204 1086.02 Q221.204 1091.6 217.732 1094.7 Q214.26 1097.78 207.94 1097.78 Q205.764 1097.78 203.496 1097.41 Q201.25 1097.04 198.843 1096.3 L198.843 1091.6 Q200.926 1092.74 203.149 1093.29 Q205.371 1093.85 207.848 1093.85 Q211.852 1093.85 214.19 1091.74 Q216.528 1089.63 216.528 1086.02 Q216.528 1082.41 214.19 1080.31 Q211.852 1078.2 207.848 1078.2 Q205.973 1078.2 204.098 1078.62 Q202.246 1079.03 200.301 1079.91 L200.301 1062.55 Z" fill="#000000" fill-rule="nonzero" fill-opacity="1" /><path clip-path="url(#clip540)" d="M164.028 759.017 Q160.417 759.017 158.589 762.582 Q156.783 766.124 156.783 773.253 Q156.783 780.36 158.589 783.925 Q160.417 787.466 164.028 787.466 Q167.663 787.466 169.468 783.925 Q171.297 780.36 171.297 773.253 Q171.297 766.124 169.468 762.582 Q167.663 759.017 164.028 759.017 M164.028 755.314 Q169.839 755.314 172.894 759.92 Q175.973 764.504 175.973 773.253 Q175.973 781.98 172.894 786.587 Q169.839 791.17 164.028 791.17 Q158.218 791.17 155.14 786.587 Q152.084 781.98 152.084 773.253 Q152.084 764.504 155.14 759.92 Q158.218 755.314 164.028 755.314 Z" fill="#000000" fill-rule="nonzero" fill-opacity="1" /><path clip-path="url(#clip540)" d="M184.19 784.619 L189.075 784.619 L189.075 790.499 L184.19 790.499 L184.19 784.619 Z" fill="#000000" fill-rule="nonzero" fill-opacity="1" /><path clip-path="url(#clip540)" d="M209.26 759.017 Q205.649 759.017 203.82 762.582 Q202.014 766.124 202.014 773.253 Q202.014 780.36 203.82 783.925 Q205.649 787.466 209.26 787.466 Q212.894 787.466 214.699 783.925 Q216.528 780.36 216.528 773.253 Q216.528 766.124 214.699 762.582 Q212.894 759.017 209.26 759.017 M209.26 755.314 Q215.07 755.314 218.125 759.92 Q221.204 764.504 221.204 773.253 Q221.204 781.98 218.125 786.587 Q215.07 791.17 209.26 791.17 Q203.449 791.17 200.371 786.587 Q197.315 781.98 197.315 773.253 Q197.315 764.504 200.371 759.92 Q203.449 755.314 209.26 755.314 Z" fill="#000000" fill-rule="nonzero" fill-opacity="1" /><path clip-path="url(#clip540)" d="M165.024 452.405 Q161.413 452.405 159.584 455.97 Q157.778 459.512 157.778 466.642 Q157.778 473.748 159.584 477.313 Q161.413 480.854 165.024 480.854 Q168.658 480.854 170.464 477.313 Q172.292 473.748 172.292 466.642 Q172.292 459.512 170.464 455.97 Q168.658 452.405 165.024 452.405 M165.024 448.702 Q170.834 448.702 173.889 453.308 Q176.968 457.892 176.968 466.642 Q176.968 475.368 173.889 479.975 Q170.834 484.558 165.024 484.558 Q159.214 484.558 156.135 479.975 Q153.079 475.368 153.079 466.642 Q153.079 457.892 156.135 453.308 Q159.214 448.702 165.024 448.702 Z" fill="#000000" fill-rule="nonzero" fill-opacity="1" /><path clip-path="url(#clip540)" d="M185.186 478.007 L190.07 478.007 L190.07 483.887 L185.186 483.887 L185.186 478.007 Z" fill="#000000" fill-rule="nonzero" fill-opacity="1" /><path clip-path="url(#clip540)" d="M200.301 449.327 L218.658 449.327 L218.658 453.262 L204.584 453.262 L204.584 461.734 Q205.602 461.387 206.621 461.225 Q207.639 461.04 208.658 461.04 Q214.445 461.04 217.824 464.211 Q221.204 467.382 221.204 472.799 Q221.204 478.378 217.732 481.479 Q214.26 484.558 207.94 484.558 Q205.764 484.558 203.496 484.188 Q201.25 483.817 198.843 483.077 L198.843 478.378 Q200.926 479.512 203.149 480.067 Q205.371 480.623 207.848 480.623 Q211.852 480.623 214.19 478.516 Q216.528 476.41 216.528 472.799 Q216.528 469.188 214.19 467.081 Q211.852 464.975 207.848 464.975 Q205.973 464.975 204.098 465.392 Q202.246 465.808 200.301 466.688 L200.301 449.327 Z" fill="#000000" fill-rule="nonzero" fill-opacity="1" /><path clip-path="url(#clip540)" d="M154.839 173.34 L162.477 173.34 L162.477 146.974 L154.167 148.641 L154.167 144.381 L162.431 142.715 L167.107 142.715 L167.107 173.34 L174.746 173.34 L174.746 177.275 L154.839 177.275 L154.839 173.34 Z" fill="#000000" fill-rule="nonzero" fill-opacity="1" /><path clip-path="url(#clip540)" d="M184.19 171.395 L189.075 171.395 L189.075 177.275 L184.19 177.275 L184.19 171.395 Z" fill="#000000" fill-rule="nonzero" fill-opacity="1" /><path clip-path="url(#clip540)" d="M209.26 145.794 Q205.649 145.794 203.82 149.358 Q202.014 152.9 202.014 160.03 Q202.014 167.136 203.82 170.701 Q205.649 174.242 209.26 174.242 Q212.894 174.242 214.699 170.701 Q216.528 167.136 216.528 160.03 Q216.528 152.9 214.699 149.358 Q212.894 145.794 209.26 145.794 M209.26 142.09 Q215.07 142.09 218.125 146.696 Q221.204 151.28 221.204 160.03 Q221.204 168.756 218.125 173.363 Q215.07 177.946 209.26 177.946 Q203.449 177.946 200.371 173.363 Q197.315 168.756 197.315 160.03 Q197.315 151.28 200.371 146.696 Q203.449 142.09 209.26 142.09 Z" fill="#000000" fill-rule="nonzero" fill-opacity="1" /><path clip-path="url(#clip540)" d="M67.3143 771.639 Q73.68 774.122 75.6216 776.477 Q77.5631 778.832 77.5631 782.779 L77.5631 787.458 L72.6615 787.458 L72.6615 784.02 Q72.6615 781.601 71.5157 780.265 Q70.3699 778.928 66.1048 777.305 L63.4312 776.254 L28.3562 790.673 L28.3562 784.466 L56.238 773.326 L28.3562 762.186 L28.3562 755.979 L67.3143 771.639 Z" fill="#000000" fill-rule="nonzero" fill-opacity="1" /><path clip-path="url(#clip540)" d="M930.454 14.0809 L930.454 22.0612 Q925.795 19.8332 921.663 18.7395 Q917.531 17.6457 913.683 17.6457 Q906.999 17.6457 903.353 20.2383 Q899.748 22.8309 899.748 27.611 Q899.748 31.6214 902.138 33.6873 Q904.568 35.7128 911.293 36.9686 L916.235 37.9813 Q925.39 39.7232 929.724 44.1387 Q934.099 48.5136 934.099 55.8863 Q934.099 64.6767 928.185 69.2137 Q922.311 73.7508 910.928 73.7508 Q906.634 73.7508 901.773 72.7785 Q896.953 71.8063 891.767 69.9024 L891.767 61.4765 Q896.75 64.2716 901.53 65.6895 Q906.31 67.1073 910.928 67.1073 Q917.936 67.1073 921.744 64.3527 Q925.552 61.598 925.552 56.4939 Q925.552 52.0379 922.797 49.5264 Q920.083 47.0148 913.845 45.759 L908.862 44.7868 Q899.707 42.9639 895.616 39.075 Q891.524 35.1862 891.524 28.2591 Q891.524 20.2383 897.155 15.6203 Q902.826 11.0023 912.751 11.0023 Q917.005 11.0023 921.42 11.7719 Q925.836 12.5416 930.454 14.0809 Z" fill="#000000" fill-rule="nonzero" fill-opacity="1" /><path clip-path="url(#clip540)" d="M946.536 27.2059 L953.989 27.2059 L953.989 72.576 L946.536 72.576 L946.536 27.2059 M946.536 9.54393 L953.989 9.54393 L953.989 18.9825 L946.536 18.9825 L946.536 9.54393 Z" fill="#000000" fill-rule="nonzero" fill-opacity="1" /><path clip-path="url(#clip540)" d="M1007.3 45.1919 L1007.3 72.576 L999.846 72.576 L999.846 45.4349 Q999.846 38.994 997.334 35.7938 Q994.822 32.5936 989.799 32.5936 Q983.764 32.5936 980.28 36.4419 Q976.796 40.2903 976.796 46.9338 L976.796 72.576 L969.302 72.576 L969.302 27.2059 L976.796 27.2059 L976.796 34.2544 Q979.47 30.163 983.075 28.1376 Q986.721 26.1121 991.46 26.1121 Q999.278 26.1121 1003.29 30.9732 Q1007.3 35.7938 1007.3 45.1919 Z" fill="#000000" fill-rule="nonzero" fill-opacity="1" /><path clip-path="url(#clip540)" d="M1060.97 48.0275 L1060.97 51.6733 L1026.7 51.6733 Q1027.19 59.3701 1031.32 63.421 Q1035.49 67.4314 1042.91 67.4314 Q1047.2 67.4314 1051.21 66.3781 Q1055.26 65.3249 1059.23 63.2184 L1059.23 70.267 Q1055.22 71.9684 1051.01 72.8596 Q1046.8 73.7508 1042.46 73.7508 Q1031.6 73.7508 1025.24 67.4314 Q1018.93 61.1119 1018.93 50.3365 Q1018.93 39.1965 1024.92 32.6746 Q1030.96 26.1121 1041.16 26.1121 Q1050.32 26.1121 1055.63 32.0264 Q1060.97 37.9003 1060.97 48.0275 M1053.52 45.84 Q1053.44 39.7232 1050.08 36.0774 Q1046.76 32.4315 1041.25 32.4315 Q1035.01 32.4315 1031.24 35.9558 Q1027.51 39.4801 1026.95 45.8805 L1053.52 45.84 Z" fill="#000000" fill-rule="nonzero" fill-opacity="1" /><path clip-path="url(#clip540)" d="M1099.9 12.096 L1134.66 12.096 L1134.66 18.9825 L1108.09 18.9825 L1108.09 36.8065 L1132.07 36.8065 L1132.07 43.6931 L1108.09 43.6931 L1108.09 72.576 L1099.9 72.576 L1099.9 12.096 Z" fill="#000000" fill-rule="nonzero" fill-opacity="1" /><path clip-path="url(#clip540)" d="M1141.99 54.671 L1141.99 27.2059 L1149.45 27.2059 L1149.45 54.3874 Q1149.45 60.8284 1151.96 64.0691 Q1154.47 67.2693 1159.49 67.2693 Q1165.53 67.2693 1169.01 63.421 Q1172.54 59.5726 1172.54 52.9291 L1172.54 27.2059 L1179.99 27.2059 L1179.99 72.576 L1172.54 72.576 L1172.54 65.6084 Q1169.82 69.7404 1166.22 71.7658 Q1162.65 73.7508 1157.91 73.7508 Q1150.09 73.7508 1146.04 68.8897 Q1141.99 64.0286 1141.99 54.671 M1160.75 26.1121 L1160.75 26.1121 Z" fill="#000000" fill-rule="nonzero" fill-opacity="1" /><path clip-path="url(#clip540)" d="M1233.06 45.1919 L1233.06 72.576 L1225.6 72.576 L1225.6 45.4349 Q1225.6 38.994 1223.09 35.7938 Q1220.58 32.5936 1215.56 32.5936 Q1209.52 32.5936 1206.04 36.4419 Q1202.55 40.2903 1202.55 46.9338 L1202.55 72.576 L1195.06 72.576 L1195.06 27.2059 L1202.55 27.2059 L1202.55 34.2544 Q1205.23 30.163 1208.83 28.1376 Q1212.48 26.1121 1217.22 26.1121 Q1225.04 26.1121 1229.05 30.9732 Q1233.06 35.7938 1233.06 45.1919 Z" fill="#000000" fill-rule="nonzero" fill-opacity="1" /><path clip-path="url(#clip540)" d="M1280.57 28.9478 L1280.57 35.9153 Q1277.41 34.1734 1274.21 33.3227 Q1271.05 32.4315 1267.81 32.4315 Q1260.56 32.4315 1256.55 37.0496 Q1252.54 41.6271 1252.54 49.9314 Q1252.54 58.2358 1256.55 62.8538 Q1260.56 67.4314 1267.81 67.4314 Q1271.05 67.4314 1274.21 66.5807 Q1277.41 65.6895 1280.57 63.9476 L1280.57 70.8341 Q1277.45 72.2924 1274.09 73.0216 Q1270.77 73.7508 1267 73.7508 Q1256.75 73.7508 1250.72 67.3098 Q1244.68 60.8689 1244.68 49.9314 Q1244.68 38.832 1250.76 32.472 Q1256.88 26.1121 1267.49 26.1121 Q1270.93 26.1121 1274.21 26.8413 Q1277.49 27.5299 1280.57 28.9478 Z" fill="#000000" fill-rule="nonzero" fill-opacity="1" /><path clip-path="url(#clip540)" d="M1300.91 14.324 L1300.91 27.2059 L1316.26 27.2059 L1316.26 32.9987 L1300.91 32.9987 L1300.91 57.6282 Q1300.91 63.1779 1302.41 64.7578 Q1303.95 66.3376 1308.61 66.3376 L1316.26 66.3376 L1316.26 72.576 L1308.61 72.576 Q1299.98 72.576 1296.7 69.3758 Q1293.41 66.1351 1293.41 57.6282 L1293.41 32.9987 L1287.95 32.9987 L1287.95 27.2059 L1293.41 27.2059 L1293.41 14.324 L1300.91 14.324 Z" fill="#000000" fill-rule="nonzero" fill-opacity="1" /><path clip-path="url(#clip540)" d="M1326.06 27.2059 L1333.52 27.2059 L1333.52 72.576 L1326.06 72.576 L1326.06 27.2059 M1326.06 9.54393 L1333.52 9.54393 L1333.52 18.9825 L1326.06 18.9825 L1326.06 9.54393 Z" fill="#000000" fill-rule="nonzero" fill-opacity="1" /><path clip-path="url(#clip540)" d="M1366.7 32.4315 Q1360.7 32.4315 1357.22 37.1306 Q1353.73 41.7891 1353.73 49.9314 Q1353.73 58.0738 1357.18 62.7728 Q1360.66 67.4314 1366.7 67.4314 Q1372.65 67.4314 1376.13 62.7323 Q1379.62 58.0333 1379.62 49.9314 Q1379.62 41.8701 1376.13 37.1711 Q1372.65 32.4315 1366.7 32.4315 M1366.7 26.1121 Q1376.42 26.1121 1381.97 32.4315 Q1387.52 38.7509 1387.52 49.9314 Q1387.52 61.0714 1381.97 67.4314 Q1376.42 73.7508 1366.7 73.7508 Q1356.93 73.7508 1351.38 67.4314 Q1345.87 61.0714 1345.87 49.9314 Q1345.87 38.7509 1351.38 32.4315 Q1356.93 26.1121 1366.7 26.1121 Z" fill="#000000" fill-rule="nonzero" fill-opacity="1" /><path clip-path="url(#clip540)" d="M1437.59 45.1919 L1437.59 72.576 L1430.13 72.576 L1430.13 45.4349 Q1430.13 38.994 1427.62 35.7938 Q1425.11 32.5936 1420.09 32.5936 Q1414.05 32.5936 1410.57 36.4419 Q1407.08 40.2903 1407.08 46.9338 L1407.08 72.576 L1399.59 72.576 L1399.59 27.2059 L1407.08 27.2059 L1407.08 34.2544 Q1409.76 30.163 1413.36 28.1376 Q1417.01 26.1121 1421.75 26.1121 Q1429.57 26.1121 1433.58 30.9732 Q1437.59 35.7938 1437.59 45.1919 Z" fill="#000000" fill-rule="nonzero" fill-opacity="1" /><path clip-path="url(#clip540)" d="M1520.39 63.9476 L1520.39 47.7034 L1507.02 47.7034 L1507.02 40.9789 L1528.49 40.9789 L1528.49 66.9452 Q1523.75 70.3075 1518.04 72.0494 Q1512.33 73.7508 1505.84 73.7508 Q1491.67 73.7508 1483.65 65.4869 Q1475.66 57.1826 1475.66 42.3968 Q1475.66 27.5705 1483.65 19.3066 Q1491.67 11.0023 1505.84 11.0023 Q1511.76 11.0023 1517.07 12.4606 Q1522.41 13.9189 1526.91 16.7545 L1526.91 25.464 Q1522.37 21.6156 1517.27 19.6712 Q1512.16 17.7268 1506.53 17.7268 Q1495.43 17.7268 1489.84 23.9246 Q1484.29 30.1225 1484.29 42.3968 Q1484.29 54.6305 1489.84 60.8284 Q1495.43 67.0263 1506.53 67.0263 Q1510.87 67.0263 1514.27 66.2971 Q1517.67 65.5274 1520.39 63.9476 Z" fill="#000000" fill-rule="nonzero" fill-opacity="1" /><path clip-path="url(#clip540)" d="M1569.4 34.1734 Q1568.15 33.4443 1566.65 33.1202 Q1565.19 32.7556 1563.41 32.7556 Q1557.09 32.7556 1553.69 36.8875 Q1550.32 40.9789 1550.32 48.6757 L1550.32 72.576 L1542.83 72.576 L1542.83 27.2059 L1550.32 27.2059 L1550.32 34.2544 Q1552.67 30.1225 1556.44 28.1376 Q1560.21 26.1121 1565.59 26.1121 Q1566.36 26.1121 1567.3 26.2337 Q1568.23 26.3147 1569.36 26.5172 L1569.4 34.1734 Z" fill="#000000" fill-rule="nonzero" fill-opacity="1" /><path clip-path="url(#clip540)" d="M1597.84 49.7694 Q1588.81 49.7694 1585.32 51.8354 Q1581.84 53.9013 1581.84 58.8839 Q1581.84 62.8538 1584.43 65.2034 Q1587.06 67.5124 1591.56 67.5124 Q1597.76 67.5124 1601.49 63.1374 Q1605.25 58.7219 1605.25 51.4303 L1605.25 49.7694 L1597.84 49.7694 M1612.71 46.6907 L1612.71 72.576 L1605.25 72.576 L1605.25 65.6895 Q1602.7 69.8214 1598.89 71.8063 Q1595.09 73.7508 1589.58 73.7508 Q1582.61 73.7508 1578.48 69.8619 Q1574.39 65.9325 1574.39 59.3701 Q1574.39 51.7138 1579.49 47.825 Q1584.63 43.9361 1594.8 43.9361 L1605.25 43.9361 L1605.25 43.2069 Q1605.25 38.0623 1601.85 35.2672 Q1598.49 32.4315 1592.37 32.4315 Q1588.48 32.4315 1584.8 33.3632 Q1581.11 34.295 1577.71 36.1584 L1577.71 29.2718 Q1581.8 27.692 1585.65 26.9223 Q1589.5 26.1121 1593.14 26.1121 Q1602.98 26.1121 1607.85 31.2163 Q1612.71 36.3204 1612.71 46.6907 Z" fill="#000000" fill-rule="nonzero" fill-opacity="1" /><path clip-path="url(#clip540)" d="M1635.27 65.7705 L1635.27 89.8329 L1627.78 89.8329 L1627.78 27.2059 L1635.27 27.2059 L1635.27 34.0924 Q1637.62 30.0415 1641.18 28.0971 Q1644.79 26.1121 1649.77 26.1121 Q1658.04 26.1121 1663.18 32.6746 Q1668.37 39.2371 1668.37 49.9314 Q1668.37 60.6258 1663.18 67.1883 Q1658.04 73.7508 1649.77 73.7508 Q1644.79 73.7508 1641.18 71.8063 Q1637.62 69.8214 1635.27 65.7705 M1660.63 49.9314 Q1660.63 41.7081 1657.23 37.0496 Q1653.86 32.3505 1647.95 32.3505 Q1642.04 32.3505 1638.63 37.0496 Q1635.27 41.7081 1635.27 49.9314 Q1635.27 58.1548 1638.63 62.8538 Q1642.04 67.5124 1647.95 67.5124 Q1653.86 67.5124 1657.23 62.8538 Q1660.63 58.1548 1660.63 49.9314 Z" fill="#000000" fill-rule="nonzero" fill-opacity="1" /><path clip-path="url(#clip540)" d="M1718.44 45.1919 L1718.44 72.576 L1710.98 72.576 L1710.98 45.4349 Q1710.98 38.994 1708.47 35.7938 Q1705.96 32.5936 1700.94 32.5936 Q1694.9 32.5936 1691.42 36.4419 Q1687.93 40.2903 1687.93 46.9338 L1687.93 72.576 L1680.44 72.576 L1680.44 9.54393 L1687.93 9.54393 L1687.93 34.2544 Q1690.61 30.163 1694.21 28.1376 Q1697.86 26.1121 1702.6 26.1121 Q1710.41 26.1121 1714.43 30.9732 Q1718.44 35.7938 1718.44 45.1919 Z" fill="#000000" fill-rule="nonzero" fill-opacity="1" /><polyline clip-path="url(#clip542)" style="stroke:#009af9; stroke-linecap:round; stroke-linejoin:round; stroke-width:4; stroke-opacity:1; fill:none" points="316.512,773.219 348.398,711.999 380.284,651.39 412.17,591.999 444.056,534.418 475.942,479.224 507.828,426.966 539.715,378.169 571.601,333.319 603.487,292.864 635.373,257.209 667.259,226.709 699.145,201.67 731.031,182.342 762.917,168.917 794.803,161.531 826.689,160.256 858.575,165.106 890.461,176.032 922.347,192.925 954.233,215.616 986.119,243.878 1018.01,277.429 1049.89,315.934 1081.78,359.009 1113.66,406.221 1145.55,457.101 1177.44,511.139 1209.32,567.796 1241.21,626.505 1273.09,686.681 1304.98,747.721 1336.87,809.015 1368.75,869.952 1400.64,929.923 1432.52,988.327 1464.41,1044.58 1496.3,1098.13 1528.18,1148.42 1560.07,1194.97 1591.95,1237.31 1623.84,1275.01 1655.73,1307.69 1687.61,1335.03 1719.5,1356.76 1751.38,1372.66 1783.27,1382.57 1815.16,1386.4 1847.04,1384.09 1878.93,1375.68 1910.82,1361.25 1942.7,1340.95 1974.59,1314.97 2006.47,1283.59 2038.36,1247.1 2070.25,1205.87 2102.13,1160.33 2134.02,1110.91 2165.9,1058.12 2197.79,1002.49 2229.68,944.563 2261.56,884.925 2293.45,824.171 "/>
<path clip-path="url(#clip540)" d="M1947.03 270.476 L2282.9 270.476 L2282.9 166.796 L1947.03 166.796  Z" fill="#ffffff" fill-rule="evenodd" fill-opacity="1"/>
<polyline clip-path="url(#clip540)" style="stroke:#000000; stroke-linecap:round; stroke-linejoin:round; stroke-width:4; stroke-opacity:1; fill:none" points="1947.03,270.476 2282.9,270.476 2282.9,166.796 1947.03,166.796 1947.03,270.476 "/>
<polyline clip-path="url(#clip540)" style="stroke:#009af9; stroke-linecap:round; stroke-linejoin:round; stroke-width:4; stroke-opacity:1; fill:none" points="1970.31,218.636 2110.02,218.636 "/>
<path clip-path="url(#clip540)" d="M2151.73 210.754 L2151.73 214.782 Q2149.92 213.856 2147.98 213.393 Q2146.03 212.93 2143.95 212.93 Q2140.78 212.93 2139.18 213.902 Q2137.61 214.874 2137.61 216.819 Q2137.61 218.3 2138.74 219.157 Q2139.88 219.99 2143.3 220.754 L2144.76 221.078 Q2149.3 222.05 2151.19 223.832 Q2153.12 225.592 2153.12 228.763 Q2153.12 232.374 2150.25 234.481 Q2147.4 236.587 2142.4 236.587 Q2140.32 236.587 2138.05 236.17 Q2135.8 235.777 2133.3 234.967 L2133.3 230.569 Q2135.66 231.795 2137.95 232.42 Q2140.25 233.022 2142.49 233.022 Q2145.5 233.022 2147.12 232.004 Q2148.74 230.962 2148.74 229.087 Q2148.74 227.351 2147.56 226.425 Q2146.4 225.499 2142.44 224.643 L2140.96 224.295 Q2137.01 223.462 2135.25 221.749 Q2133.49 220.013 2133.49 217.004 Q2133.49 213.346 2136.08 211.356 Q2138.67 209.365 2143.44 209.365 Q2145.8 209.365 2147.88 209.712 Q2149.97 210.059 2151.73 210.754 Z" fill="#000000" fill-rule="nonzero" fill-opacity="1" /><path clip-path="url(#clip540)" d="M2159.9 209.99 L2164.16 209.99 L2164.16 235.916 L2159.9 235.916 L2159.9 209.99 M2159.9 199.897 L2164.16 199.897 L2164.16 205.291 L2159.9 205.291 L2159.9 199.897 Z" fill="#000000" fill-rule="nonzero" fill-opacity="1" /><path clip-path="url(#clip540)" d="M2194.62 220.268 L2194.62 235.916 L2190.36 235.916 L2190.36 220.407 Q2190.36 216.726 2188.93 214.897 Q2187.49 213.069 2184.62 213.069 Q2181.17 213.069 2179.18 215.268 Q2177.19 217.467 2177.19 221.263 L2177.19 235.916 L2172.91 235.916 L2172.91 209.99 L2177.19 209.99 L2177.19 214.018 Q2178.72 211.68 2180.78 210.522 Q2182.86 209.365 2185.57 209.365 Q2190.04 209.365 2192.33 212.143 Q2194.62 214.897 2194.62 220.268 Z" fill="#000000" fill-rule="nonzero" fill-opacity="1" /><path clip-path="url(#clip540)" d="M2213.35 199.944 Q2210.25 205.268 2208.74 210.476 Q2207.24 215.684 2207.24 221.032 Q2207.24 226.379 2208.74 231.633 Q2210.27 236.865 2213.35 242.166 L2209.64 242.166 Q2206.17 236.726 2204.44 231.471 Q2202.72 226.217 2202.72 221.032 Q2202.72 215.87 2204.44 210.638 Q2206.15 205.407 2209.64 199.944 L2213.35 199.944 Z" fill="#000000" fill-rule="nonzero" fill-opacity="1" /><path clip-path="url(#clip540)" d="M2243.16 209.99 L2233.79 222.606 L2243.65 235.916 L2238.63 235.916 L2231.08 225.731 L2223.53 235.916 L2218.51 235.916 L2228.58 222.351 L2219.37 209.99 L2224.39 209.99 L2231.26 219.226 L2238.14 209.99 L2243.16 209.99 Z" fill="#000000" fill-rule="nonzero" fill-opacity="1" /><path clip-path="url(#clip540)" d="M2249 199.944 L2252.7 199.944 Q2256.17 205.407 2257.88 210.638 Q2259.62 215.87 2259.62 221.032 Q2259.62 226.217 2257.88 231.471 Q2256.17 236.726 2252.7 242.166 L2249 242.166 Q2252.07 236.865 2253.58 231.633 Q2255.11 226.379 2255.11 221.032 Q2255.11 215.684 2253.58 210.476 Q2252.07 205.268 2249 199.944 Z" fill="#000000" fill-rule="nonzero" fill-opacity="1" /></svg>